<svg width="161" height="141" viewBox="0 0 161 141" fill="none" xmlns="http://www.w3.org/2000/svg">
<path d="M0.97998 117.354C0.97998 106.838 3.23713 97.7555 7.75142 90.1072C12.3845 82.4589 17.1958 78.6347 22.1853 78.6347C23.492 78.6347 24.7988 79.053 26.1056 79.8895L26.6402 81.1443C25.0958 84.1319 24.1454 87.8963 23.789 92.4375L22.7199 93.1546C22.2447 92.9156 21.3537 92.796 20.0469 92.796C18.7402 92.796 16.78 93.5131 14.1665 94.9471C11.6717 96.3812 9.71157 97.8153 8.28601 99.2493C7.45443 100.922 7.03864 102.834 7.03864 104.986C7.03864 110.602 10.7807 115.442 18.265 119.505C25.868 123.449 33.174 125.421 40.183 125.421C54.7951 125.421 62.1011 117.056 62.1011 100.325C62.1011 93.9911 56.1019 86.044 44.1034 76.4836C39.1139 72.4205 34.1244 68.3573 29.1349 64.2941C17.1364 54.7337 11.1371 46.4281 11.1371 39.3774C11.1371 31.012 14.8793 23.2442 22.3635 16.0739C29.8477 8.7841 38.3417 3.46613 47.8455 0.119995C58.062 0.119995 67.744 1.13578 76.8914 3.16736V6.75252C70.7139 12.4888 66.0611 4.38233 65.3483 16.3328L62.3783 16.6117C62.3783 10.2779 67.9222 14.4407 60.3984 15.9345C55.2901 13.5444 50.5184 13.0265 44.4597 13.0265C38.5199 13.0265 33.471 14.3411 29.3131 16.9702C25.1552 19.4798 23.0763 22.7064 23.0763 26.6501C23.0763 30.5937 24.7988 34.5972 28.2439 38.6603C31.8078 42.604 36.0845 46.4879 41.074 50.3121C46.0635 54.0167 50.9936 57.8409 55.8643 61.7845C60.8538 65.6087 65.0711 69.7914 68.5162 74.3325C72.0801 78.7542 73.862 83.0564 73.862 87.2391C73.862 99.1896 70.5951 109.826 64.0613 119.147C57.5274 128.468 48.6176 135.459 37.3319 140.12C22.4823 138.566 10.6026 134.384 1.69276 127.572C1.21757 124.226 0.97998 120.82 0.97998 117.354Z" fill="black"/>
<path d="M135.637 6.9716C146.064 6.9716 153.258 4.91346 157.218 0.797179L160.98 2.78894C155.304 13.146 152.004 25.2293 151.08 39.0388H146.13C144.942 33.3291 144.348 26.0924 144.348 17.3287C140.916 18.391 136.627 18.9221 131.479 18.9221C126.331 18.9221 117.817 18.391 105.937 17.3287C104.881 27.1547 104.353 42.2256 104.353 62.5414C110.029 63.6037 115.573 64.1348 120.985 64.1348C131.281 64.1348 137.815 61.2799 140.586 55.5703L144.546 56.367C143.358 60.616 142.764 65.7282 142.764 71.7034C142.764 77.5459 143.16 83.322 143.952 89.0316L139.398 89.8283C137.419 84.7826 136.099 78.8737 135.439 72.1018C130.555 71.7034 125.473 71.5043 120.193 71.5043C114.913 71.5043 109.633 71.8362 104.353 72.5001C104.485 99.5879 105.343 118.244 106.927 128.468C113.527 129.132 120.787 130.394 128.707 132.253L128.113 137.033C118.345 135.971 107.719 135.439 96.2355 135.439C84.8838 135.439 75.71 135.971 68.7142 137.033L67.9222 132.053C73.862 130.194 80.1979 128.8 86.9297 127.871C88.3817 116.983 89.1077 99.8535 89.1077 76.4836V64.7323C89.1077 51.5868 88.3157 35.4536 86.7317 16.3328H86.3357C70.7601 16.3328 66.3382 18.4242 60.3984 15.9345C56.9335 9.66707 65.9422 1.67354 65.9422 5.65704C65.9422 9.64054 66.6022 12.3626 67.9222 13.8232L66.3382 13.0265C63.0383 15.0183 68.1532 8.94343 64.8533 12.5286C63.2693 12.3958 61.4214 12.429 60.4974 11.2339C59.4414 10.0389 58.9134 8.64467 58.9134 7.05127C58.9134 0.544896 53.4223 21.684 61.2101 12.6547C68.998 3.62544 68.3182 5.17904 75.05 2.78894C84.2898 3.18728 95.0475 3.98398 107.323 5.17903C119.731 6.37408 129.169 6.9716 135.637 6.9716Z" fill="black"/>
</svg>
